<?xml version="1.0" encoding="UTF-8" standalone="no"?>
<!DOCTYPE svg PUBLIC "-//W3C//DTD SVG 1.1//EN"
 "http://www.w3.org/Graphics/SVG/1.1/DTD/svg11.dtd">
<!-- Generated by graphviz version 2.44.1 (20200629.0846)
 -->
<!-- Title: g Pages: 1 -->
<svg width="906pt" height="1533pt"
 viewBox="0.00 0.00 906.00 1533.20" xmlns="http://www.w3.org/2000/svg" xmlns:xlink="http://www.w3.org/1999/xlink">
<g id="graph0" class="graph" transform="scale(1 1) rotate(0) translate(4 1529.2)">
<title>g</title>
<polygon fill="white" stroke="transparent" points="-4,4 -4,-1529.2 902,-1529.2 902,4 -4,4"/>
<g id="clust1" class="cluster">
<title>cluster_1664073796</title>
<polygon fill="#ececec" stroke="black" points="193,-1156.8 193,-1391.6 643,-1391.6 643,-1156.8 193,-1156.8"/>
<text text-anchor="middle" x="229.77" y="-1375" font-family="Times New Roman,serif" font-size="14.00">Controller</text>
</g>
<g id="clust5" class="cluster">
<title>cluster_600973044</title>
<polygon fill="#ececec" stroke="black" points="332,-762.4 332,-925.2 890,-925.2 890,-762.4 332,-762.4"/>
<text text-anchor="middle" x="367.98" y="-908.6" font-family="Times New Roman,serif" font-size="14.00">TreeDAO</text>
</g>
<g id="clust3" class="cluster">
<title>cluster_2615230</title>
<polygon fill="#ececec" stroke="black" points="368,-8 368,-530.8 854,-530.8 854,-8 368,-8"/>
<text text-anchor="middle" x="388.82" y="-514.2" font-family="Times New Roman,serif" font-size="14.00">Tree</text>
</g>
<g id="clust2" class="cluster">
<title>cluster_2390489</title>
<polygon fill="#ececec" stroke="black" points="344,-1426.4 344,-1517.2 492,-1517.2 492,-1426.4 344,-1426.4"/>
<text text-anchor="middle" x="366.77" y="-1500.6" font-family="Times New Roman,serif" font-size="14.00">Main</text>
</g>
<g id="clust4" class="cluster">
<title>cluster_2666181</title>
<polygon fill="#ececec" stroke="black" points="8,-582.4 8,-1105.2 324,-1105.2 324,-582.4 8,-582.4"/>
<text text-anchor="middle" x="31.16" y="-1088.6" font-family="Times New Roman,serif" font-size="14.00">View</text>
</g>
<!-- Controller1664073796 -->
<g id="node1" class="node">
<title>Controller1664073796</title>
<polygon fill="#ffffff" stroke="transparent" points="635,-1358.8 201,-1358.8 201,-1164.8 635,-1164.8 635,-1358.8"/>
<text text-anchor="start" x="206" y="-1341.2" font-family="Times New Roman,serif" font-size="14.00">(C)Controller</text>
<text text-anchor="start" x="206" y="-1317.2" font-family="Times New Roman,serif" font-size="14.00">&#45; &#160;&#160;treedao: TreeDAO [0..1]</text>
<text text-anchor="start" x="206" y="-1293.2" font-family="Times New Roman,serif" font-size="14.00">&#45; &#160;&#160;view: View [0..1]</text>
<text text-anchor="start" x="206" y="-1269.2" font-family="Times New Roman,serif" font-size="14.00">+ Controller()</text>
<text text-anchor="start" x="205.9" y="-1245.2" font-family="Times New Roman,serif" font-size="14.00">&#45; getDoubleValueFromText(text: String, min: double, max: double): double</text>
<text text-anchor="start" x="206" y="-1221.2" font-family="Times New Roman,serif" font-size="14.00">&#45; getUniqueId(): int</text>
<text text-anchor="start" x="206" y="-1197.2" font-family="Times New Roman,serif" font-size="14.00">&#45; onSaveClick(event: ActionEvent)</text>
<text text-anchor="start" x="206" y="-1173.2" font-family="Times New Roman,serif" font-size="14.00">&#45; onShowTreeList(event: ActionEvent)</text>
<polygon fill="black" stroke="black" points="201,-1333.8 201,-1333.8 635,-1333.8 635,-1333.8 201,-1333.8"/>
<polygon fill="black" stroke="black" points="201,-1285.8 201,-1285.8 635,-1285.8 635,-1285.8 201,-1285.8"/>
<polygon fill="none" stroke="black" points="201,-1164.8 201,-1358.8 635,-1358.8 635,-1164.8 201,-1164.8"/>
</g>
<!-- View2666181 -->
<g id="node4" class="node">
<title>View2666181</title>
<polygon fill="#ffffff" stroke="transparent" points="315.5,-1072.4 16.5,-1072.4 16.5,-590.4 315.5,-590.4 315.5,-1072.4"/>
<text text-anchor="start" x="22" y="-1054.8" font-family="Times New Roman,serif" font-size="14.00">(C)View</text>
<text text-anchor="start" x="22" y="-1030.8" font-family="Times New Roman,serif" font-size="14.00">&#45; &#160;&#160;isSickChkBox: JCheckBox [0..1]</text>
<text text-anchor="start" x="22" y="-1006.8" font-family="Times New Roman,serif" font-size="14.00">&#45; &#160;&#160;latTf: JTextField [0..1]</text>
<text text-anchor="start" x="22" y="-982.8" font-family="Times New Roman,serif" font-size="14.00">&#45; &#160;&#160;lngTf: JTextField [0..1]</text>
<text text-anchor="start" x="22" y="-958.8" font-family="Times New Roman,serif" font-size="14.00">&#45; &#160;&#160;nameTf: JTextField [0..1]</text>
<text text-anchor="start" x="22" y="-934.8" font-family="Times New Roman,serif" font-size="14.00">&#45; &#160;&#160;saveBtn: JButton [0..1]</text>
<text text-anchor="start" x="22" y="-910.8" font-family="Times New Roman,serif" font-size="14.00">&#45; &#160;&#160;showListBtn: JButton [0..1]</text>
<text text-anchor="start" x="22" y="-886.8" font-family="Times New Roman,serif" font-size="14.00">&#45; &#160;&#160;typeTf: JTextField [0..1]</text>
<text text-anchor="start" x="21.79" y="-862.8" font-family="Times New Roman,serif" font-size="14.00">+ View(width: int, height: int, windowTitle: String)</text>
<text text-anchor="start" x="22" y="-838.8" font-family="Times New Roman,serif" font-size="14.00">+ addSaveHandler(listener: ActionListener)</text>
<text text-anchor="start" x="22" y="-814.8" font-family="Times New Roman,serif" font-size="14.00">+ addShowHandler(listener: ActionListener)</text>
<text text-anchor="start" x="22" y="-790.8" font-family="Times New Roman,serif" font-size="14.00">&#45; createUserInterface(width: int, height: int)</text>
<text text-anchor="start" x="22" y="-766.8" font-family="Times New Roman,serif" font-size="14.00">+ getIsSickChkBox(): boolean</text>
<text text-anchor="start" x="22" y="-742.8" font-family="Times New Roman,serif" font-size="14.00">+ getLatText(): String</text>
<text text-anchor="start" x="22" y="-718.8" font-family="Times New Roman,serif" font-size="14.00">+ getLngText(): String</text>
<text text-anchor="start" x="22" y="-694.8" font-family="Times New Roman,serif" font-size="14.00">+ getNameText(): String</text>
<text text-anchor="start" x="22" y="-670.8" font-family="Times New Roman,serif" font-size="14.00">+ getTypeText(): String</text>
<text text-anchor="start" x="22" y="-646.8" font-family="Times New Roman,serif" font-size="14.00">+ showConfirmWindow(message: String): boolean</text>
<text text-anchor="start" x="22" y="-622.8" font-family="Times New Roman,serif" font-size="14.00">+ showErrorWindow(message: String)</text>
<text text-anchor="start" x="22" y="-598.8" font-family="Times New Roman,serif" font-size="14.00">+ showInfoWindow(message: String)</text>
<polygon fill="black" stroke="black" points="17,-1047.4 17,-1047.4 316,-1047.4 316,-1047.4 17,-1047.4"/>
<polygon fill="black" stroke="black" points="17,-879.4 17,-879.4 316,-879.4 316,-879.4 17,-879.4"/>
<polygon fill="none" stroke="black" points="16.5,-590.4 16.5,-1072.4 315.5,-1072.4 315.5,-590.4 16.5,-590.4"/>
</g>
<!-- Controller1664073796&#45;&gt;View2666181 -->
<g id="edge2" class="edge">
<title>Controller1664073796&#45;&gt;View2666181</title>
<path fill="none" stroke="black" d="M361.45,-1164.66C346.52,-1139.29 329.71,-1110.7 312.36,-1081.22"/>
<polygon fill="black" stroke="black" points="315.3,-1079.31 307.21,-1072.46 309.27,-1082.86 315.3,-1079.31"/>
<text text-anchor="middle" x="365.16" y="-1134.2" font-family="Times New Roman,serif" font-size="14.00">view</text>
<text text-anchor="middle" x="365.16" y="-1117.4" font-family="Times New Roman,serif" font-size="14.00">[0..1]</text>
</g>
<!-- TreeDAO600973044 -->
<g id="node5" class="node">
<title>TreeDAO600973044</title>
<polygon fill="#ffffff" stroke="transparent" points="882,-892.4 340,-892.4 340,-770.4 882,-770.4 882,-892.4"/>
<text text-anchor="start" x="345" y="-874.8" font-family="Times New Roman,serif" font-size="14.00">(C)TreeDAO</text>
<text text-anchor="start" x="345" y="-850.8" font-family="Times New Roman,serif" font-size="14.00">&#45; &#160;&#160;treeList: ArrayList&lt;Tree&gt; [0..*]</text>
<text text-anchor="start" x="345" y="-826.8" font-family="Times New Roman,serif" font-size="14.00">+ TreeDAO()</text>
<text text-anchor="start" x="344.59" y="-802.8" font-family="Times New Roman,serif" font-size="14.00">+ addTree(id: int, name: String, lng: double, lat: double, type: String, isSick: boolean): boolean</text>
<text text-anchor="start" x="345" y="-778.8" font-family="Times New Roman,serif" font-size="14.00">+ getTreeListAsText(): String</text>
<polygon fill="black" stroke="black" points="340,-867.4 340,-867.4 882,-867.4 882,-867.4 340,-867.4"/>
<polygon fill="black" stroke="black" points="340,-843.4 340,-843.4 882,-843.4 882,-843.4 340,-843.4"/>
<polygon fill="none" stroke="black" points="340,-770.4 340,-892.4 882,-892.4 882,-770.4 340,-770.4"/>
</g>
<!-- Controller1664073796&#45;&gt;TreeDAO600973044 -->
<g id="edge1" class="edge">
<title>Controller1664073796&#45;&gt;TreeDAO600973044</title>
<path fill="none" stroke="black" d="M461.31,-1164.66C497.26,-1084.86 547.54,-973.27 579.68,-901.91"/>
<polygon fill="black" stroke="black" points="582.99,-903.1 583.9,-892.55 576.6,-900.23 582.99,-903.1"/>
<text text-anchor="middle" x="503.6" y="-1134.2" font-family="Times New Roman,serif" font-size="14.00">treedao</text>
<text text-anchor="middle" x="503.6" y="-1117.4" font-family="Times New Roman,serif" font-size="14.00">[0..1]</text>
</g>
<!-- Main2390489 -->
<g id="node2" class="node">
<title>Main2390489</title>
<polygon fill="#ffffff" stroke="transparent" points="484,-1484.4 352,-1484.4 352,-1434.4 484,-1434.4 484,-1484.4"/>
<text text-anchor="start" x="357" y="-1466.8" font-family="Times New Roman,serif" font-size="14.00">(C)Main</text>
<text text-anchor="start" x="356.52" y="-1442.8" font-family="Times New Roman,serif" font-size="14.00">+ main(args: String[])</text>
<polygon fill="black" stroke="black" points="352,-1459.4 352,-1459.4 484,-1459.4 484,-1459.4 352,-1459.4"/>
<polygon fill="none" stroke="black" points="352,-1434.4 352,-1484.4 484,-1484.4 484,-1434.4 352,-1434.4"/>
</g>
<!-- Main2390489&#45;&gt;Controller1664073796 -->
<g id="edge3" class="edge">
<title>Main2390489&#45;&gt;Controller1664073796</title>
<path fill="none" stroke="black" d="M418,-1434.02C418,-1417.19 418,-1393.52 418,-1369.14"/>
<polygon fill="black" stroke="black" points="421.5,-1369.04 418,-1359.04 414.5,-1369.04 421.5,-1369.04"/>
<text text-anchor="middle" x="479.87" y="-1403.8" font-family="Times New Roman,serif" font-size="14.00">main() &#45;&gt; Controller()</text>
</g>
<!-- Tree2615230 -->
<g id="node3" class="node">
<title>Tree2615230</title>
<polygon fill="#ffffff" stroke="transparent" points="846,-498 376,-498 376,-16 846,-16 846,-498"/>
<text text-anchor="start" x="381" y="-480.4" font-family="Times New Roman,serif" font-size="14.00">(C)Tree</text>
<text text-anchor="start" x="381" y="-456.4" font-family="Times New Roman,serif" font-size="14.00">&#45; &#160;&#160;id: int [1]</text>
<text text-anchor="start" x="381" y="-432.4" font-family="Times New Roman,serif" font-size="14.00">&#45; &#160;&#160;isSick: boolean [1]</text>
<text text-anchor="start" x="381" y="-408.4" font-family="Times New Roman,serif" font-size="14.00">&#45; &#160;&#160;lat: double [1]</text>
<text text-anchor="start" x="381" y="-384.4" font-family="Times New Roman,serif" font-size="14.00">&#45; &#160;&#160;lng: double [1]</text>
<text text-anchor="start" x="381" y="-360.4" font-family="Times New Roman,serif" font-size="14.00">&#45; &#160;&#160;name: String [0..1]</text>
<text text-anchor="start" x="381" y="-336.4" font-family="Times New Roman,serif" font-size="14.00">&#45; &#160;&#160;type: String [0..1]</text>
<text text-anchor="start" x="380.56" y="-312.4" font-family="Times New Roman,serif" font-size="14.00">+ Tree(id: int, name: String, lng: double, lat: double, type: String, isSick: boolean)</text>
<text text-anchor="start" x="381" y="-288.4" font-family="Times New Roman,serif" font-size="14.00">+ getId(): int</text>
<text text-anchor="start" x="381" y="-264.4" font-family="Times New Roman,serif" font-size="14.00">+ getLat(): double</text>
<text text-anchor="start" x="381" y="-240.4" font-family="Times New Roman,serif" font-size="14.00">+ getLng(): double</text>
<text text-anchor="start" x="381" y="-216.4" font-family="Times New Roman,serif" font-size="14.00">+ getName(): String</text>
<text text-anchor="start" x="381" y="-192.4" font-family="Times New Roman,serif" font-size="14.00">+ getType(): String</text>
<text text-anchor="start" x="381" y="-168.4" font-family="Times New Roman,serif" font-size="14.00">+ isSick(): boolean</text>
<text text-anchor="start" x="381" y="-144.4" font-family="Times New Roman,serif" font-size="14.00">+ setId(id: int)</text>
<text text-anchor="start" x="381" y="-120.4" font-family="Times New Roman,serif" font-size="14.00">+ setLat(lat: double)</text>
<text text-anchor="start" x="381" y="-96.4" font-family="Times New Roman,serif" font-size="14.00">+ setLng(lng: double)</text>
<text text-anchor="start" x="381" y="-72.4" font-family="Times New Roman,serif" font-size="14.00">+ setName(name: String)</text>
<text text-anchor="start" x="381" y="-48.4" font-family="Times New Roman,serif" font-size="14.00">+ setSick(sick: boolean)</text>
<text text-anchor="start" x="381" y="-24.4" font-family="Times New Roman,serif" font-size="14.00">+ setType(type: String)</text>
<polygon fill="black" stroke="black" points="376,-473 376,-473 846,-473 846,-473 376,-473"/>
<polygon fill="black" stroke="black" points="376,-329 376,-329 846,-329 846,-329 376,-329"/>
<polygon fill="none" stroke="black" points="376,-16 376,-498 846,-498 846,-16 376,-16"/>
</g>
<!-- TreeDAO600973044&#45;&gt;Tree2615230 -->
<g id="edge4" class="edge">
<title>TreeDAO600973044&#45;&gt;Tree2615230</title>
<path fill="none" stroke="black" d="M611,-770.23C611,-707.57 611,-605.24 611,-508.46"/>
<polygon fill="black" stroke="black" points="614.5,-508.2 611,-498.2 607.5,-508.2 614.5,-508.2"/>
<text text-anchor="middle" x="632.38" y="-559.8" font-family="Times New Roman,serif" font-size="14.00">treeList</text>
<text text-anchor="middle" x="632.38" y="-543" font-family="Times New Roman,serif" font-size="14.00">[0..*]</text>
</g>
</g>
</svg>
